<svg width="24" height="24" viewBox="0 0 24 24" fill="none" xmlns="http://www.w3.org/2000/svg">
  <circle cx="12" cy="12" r="9" stroke="currentColor" stroke-width="2"/>
  <path d="M3 12H21" stroke="currentColor" stroke-width="2" stroke-linecap="round"/>
  <path d="M12 3C14.7614 3 17.101 5.58986 17.6569 8.5C17.101 11.4101 14.7614 14 12 14C9.23858 14 6.89898 11.4101 6.34315 8.5C6.89898 5.58986 9.23858 3 12 3Z" stroke="currentColor" stroke-width="2"/>
  <path d="M12 21C14.7614 21 17.101 18.4101 17.6569 15.5C17.101 12.5899 14.7614 10 12 10C9.23858 10 6.89898 12.5899 6.34315 15.5C6.89898 18.4101 9.23858 21 12 21Z" stroke="currentColor" stroke-width="2"/>
</svg>