<svg width="24" height="24" viewBox="0 0 24 24" fill="none" xmlns="http://www.w3.org/2000/svg">
  <path d="M16 8C17.1046 8 18 8.89543 18 10V18H15V10C15 9.44772 14.5523 9 14 9H13C12.4477 9 12 9.44772 12 10V18H9V10C9 8.89543 9.89543 8 11 8H16Z" stroke="currentColor" stroke-width="2" stroke-linejoin="round"/>
  <path d="M6 8H9V18H6V8Z" stroke="currentColor" stroke-width="2" stroke-linecap="round"/>
  <path d="M6 4C7.10457 4 8 4.89543 8 6C8 7.10457 7.10457 8 6 8C4.89543 8 4 7.10457 4 6C4 4.89543 4.89543 4 6 4Z" stroke="currentColor" stroke-width="2"/>
</svg>
