<svg width="24" height="24" viewBox="0 0 24 24" fill="none" xmlns="http://www.w3.org/2000/svg">
  <path d="M22 5.8999C21.1587 6.32163 20.2491 6.59629 19.2894 6.70693C20.2703 6.09766 21.003 5.15749 21.3212 4.05819C20.4101 4.61078 19.3977 4.9994 18.3195 5.20222C17.4685 4.29961 16.1793 3.76096 14.8068 3.76096C12.3473 3.76096 10.3621 5.74612 10.3621 8.20563C10.3621 8.62891 10.4026 9.03731 10.4783 9.4251C7.05442 9.21507 4.04697 7.52856 2.16472 4.89992C1.70688 5.73945 1.42889 6.70851 1.42889 7.73957C1.42889 10.0875 2.88952 12.1358 5.03075 12.7613C4.24736 12.9215 3.41024 12.964 2.60457 12.8802C3.22963 14.9018 5.02439 16.349 7.17994 16.392C5.4652 17.7198 3.32127 18.4552 1.06349 18.4552C0.703482 18.4552 0.347371 18.4359 -9.53674e-07 18.3972C2.17901 19.826 4.76453 20.6992 7.5231 20.6992C14.7975 20.6992 18.6906 14.2599 18.6906 8.75046C18.6906 8.54411 18.6866 8.33837 18.6785 8.13325C19.6009 7.42707 20.3851 6.57296 21 5.59988L22 5.8999Z" stroke="currentColor" stroke-width="2" stroke-linecap="round" stroke-linejoin="round"/>
</svg>
